<svg xmlns="http://www.w3.org/2000/svg" xmlns:xlink="http://www.w3.org/1999/xlink" width="500" zoomAndPan="magnify" viewBox="0 0 375 374.999991" height="500" preserveAspectRatio="xMidYMid meet" version="1.0"><defs><g/><clipPath id="id1"><path d="M 22.757812 15.542969 L 355.007812 15.542969 L 355.007812 347.792969 L 22.757812 347.792969 Z M 22.757812 15.542969 " clip-rule="nonzero"/></clipPath><clipPath id="id2"><path d="M 0 0 L 375 0 L 375 150.441406 L 0 150.441406 Z M 0 0 " clip-rule="nonzero"/></clipPath><clipPath id="id3"><path d="M 0 198.417969 L 375 198.417969 L 375 375 L 0 375 Z M 0 198.417969 " clip-rule="nonzero"/></clipPath><clipPath id="id4"><path d="M 106.507812 158 L 169 158 L 169 247.890625 L 106.507812 247.890625 Z M 106.507812 158 " clip-rule="nonzero"/></clipPath><clipPath id="id5"><path d="M 137 189 L 183 189 L 183 247.890625 L 137 247.890625 Z M 137 189 " clip-rule="nonzero"/></clipPath><clipPath id="id6"><path d="M 206 158 L 268.507812 158 L 268.507812 247.890625 L 206 247.890625 Z M 206 158 " clip-rule="nonzero"/></clipPath><clipPath id="id7"><path d="M 192 189 L 238 189 L 238 247.890625 L 192 247.890625 Z M 192 189 " clip-rule="nonzero"/></clipPath></defs><rect x="-37.5" width="450" fill="#ffffff" y="-37.499999" height="449.999989" fill-opacity="1"/><rect x="-37.5" width="450" fill="#a8e5e7" y="-37.499999" height="449.999989" fill-opacity="1"/><rect x="-37.5" width="450" fill="#ffffff" y="-37.499999" height="449.999989" fill-opacity="1"/><rect x="-37.5" width="450" fill="#a8e5e7" y="-37.499999" height="449.999989" fill-opacity="1"/><g clip-path="url(#id1)"><path fill="#ffffff" d="M 344.730469 225.964844 C 340.519531 240.304688 334.089844 253.910156 326.105469 266.441406 C 319.519531 276.636719 312.027344 286.21875 303.605469 294.9375 C 302.519531 296.128906 301.304688 297.195312 300.148438 298.316406 C 298.972656 299.421875 297.828125 300.5625 296.628906 301.640625 L 292.980469 304.8125 L 291.15625 306.402344 L 289.261719 307.90625 L 285.484375 310.925781 C 284.203125 311.902344 282.882812 312.828125 281.585938 313.789062 C 279.019531 315.75 276.292969 317.476562 273.625 319.292969 C 273.238281 319.550781 272.835938 319.820312 272.414062 320.105469 C 271.976562 320.367188 271.527344 320.636719 271.054688 320.921875 C 270.113281 321.484375 269.097656 322.089844 268.019531 322.734375 C 265.886719 324.078125 263.363281 325.335938 260.636719 326.785156 C 259.953125 327.140625 259.265625 327.527344 258.539062 327.871094 C 257.8125 328.210938 257.070312 328.554688 256.3125 328.90625 C 254.796875 329.605469 253.226562 330.332031 251.609375 331.082031 C 248.289062 332.378906 244.828125 333.9375 241.054688 335.144531 C 226.148438 340.546875 207.550781 343.890625 188.882812 343.96875 C 170.21875 343.890625 151.621094 340.546875 136.71875 335.144531 C 132.941406 333.9375 129.480469 332.378906 126.160156 331.082031 C 124.542969 330.332031 122.972656 329.605469 121.457031 328.90625 C 120.703125 328.554688 119.957031 328.210938 119.230469 327.875 C 118.507812 327.527344 117.820312 327.140625 117.132812 326.785156 C 114.410156 325.339844 111.882812 324.078125 109.753906 322.738281 C 108.671875 322.089844 107.660156 321.484375 106.71875 320.921875 C 106.246094 320.640625 105.792969 320.367188 105.359375 320.105469 C 104.9375 319.824219 104.53125 319.550781 104.148438 319.292969 C 94.007812 312.648438 84.480469 305.097656 75.820312 296.621094 C 66.6875 287.496094 58.703125 277.277344 51.664062 266.441406 C 43.679688 253.910156 37.25 240.304688 33.035156 225.964844 C 28.652344 211.671875 26.625 196.671875 26.492188 181.667969 C 26.625 166.667969 28.652344 151.667969 33.035156 137.375 C 37.25 123.03125 43.679688 109.429688 51.660156 96.898438 C 58.25 86.699219 65.742188 77.117188 74.160156 68.398438 C 75.25 67.207031 76.464844 66.144531 77.621094 65.019531 C 78.796875 63.914062 79.941406 62.773438 81.140625 61.699219 L 84.789062 58.523438 L 86.613281 56.933594 L 88.507812 55.433594 L 92.285156 52.410156 C 93.566406 51.433594 94.886719 50.507812 96.183594 49.546875 C 98.746094 47.585938 101.476562 45.863281 104.144531 44.046875 C 104.53125 43.785156 104.933594 43.515625 105.355469 43.230469 C 105.792969 42.972656 106.242188 42.699219 106.714844 42.414062 C 107.65625 41.851562 108.671875 41.246094 109.75 40.601562 C 111.882812 39.261719 114.40625 38 117.132812 36.550781 C 117.816406 36.199219 118.503906 35.8125 119.230469 35.464844 C 119.957031 35.125 120.699219 34.78125 121.457031 34.429688 C 122.972656 33.730469 124.542969 33.003906 126.160156 32.257812 C 129.480469 30.957031 132.941406 29.402344 136.714844 28.191406 C 151.621094 22.789062 170.21875 19.449219 188.882812 19.371094 C 207.550781 19.449219 226.148438 22.789062 241.050781 28.191406 C 244.828125 29.402344 248.289062 30.957031 251.609375 32.257812 C 253.226562 33.003906 254.796875 33.730469 256.308594 34.429688 C 257.066406 34.78125 257.8125 35.125 258.539062 35.464844 C 259.261719 35.808594 259.949219 36.199219 260.636719 36.550781 C 263.359375 37.996094 265.886719 39.261719 268.015625 40.601562 C 269.097656 41.246094 270.109375 41.851562 271.050781 42.414062 C 271.523438 42.699219 271.976562 42.96875 272.410156 43.230469 C 272.832031 43.515625 273.238281 43.785156 273.621094 44.042969 C 283.761719 50.6875 293.289062 58.238281 301.949219 66.71875 C 311.082031 75.839844 319.066406 86.058594 326.105469 96.894531 C 334.089844 109.425781 340.519531 123.03125 344.730469 137.375 C 349.117188 151.667969 351.144531 166.667969 351.273438 181.667969 C 351.144531 196.671875 349.117188 211.671875 344.730469 225.964844 Z M 355.007812 181.558594 L 355.003906 181.542969 C 354.867188 166.226562 352.808594 150.898438 348.347656 136.285156 C 344.054688 121.625 337.480469 107.710938 329.285156 94.933594 L 325.347656 89.011719 C 325.347656 89.011719 324.207031 87.417969 322.5 85.03125 C 320.855469 82.59375 318.339844 79.589844 315.9375 76.5 C 313.347656 73.566406 310.863281 70.539062 308.777344 68.472656 C 306.746094 66.355469 305.394531 64.945312 305.394531 64.945312 C 305.394531 64.945312 305.050781 64.59375 304.433594 64.003906 C 303.820312 63.410156 302.941406 62.558594 301.886719 61.539062 C 299.828125 59.441406 296.839844 56.917969 293.910156 54.328125 C 292.40625 53.078125 290.859375 51.878906 289.429688 50.730469 C 288.714844 50.160156 288.019531 49.609375 287.363281 49.085938 C 286.679688 48.59375 286.039062 48.128906 285.441406 47.699219 C 283.0625 45.980469 281.476562 44.839844 281.476562 44.839844 C 281.476562 44.839844 281.132812 44.558594 280.574219 44.195312 C 280.019531 43.824219 279.28125 43.332031 278.542969 42.839844 C 277.066406 41.851562 275.589844 40.863281 275.589844 40.863281 C 275.199219 40.597656 274.785156 40.316406 274.355469 40.027344 C 273.910156 39.757812 273.449219 39.476562 272.96875 39.1875 C 272.003906 38.605469 270.964844 37.984375 269.863281 37.324219 C 267.683594 35.949219 265.105469 34.652344 262.316406 33.167969 C 261.617188 32.804688 260.914062 32.40625 260.171875 32.050781 C 259.425781 31.703125 258.667969 31.351562 257.894531 30.988281 C 256.34375 30.273438 254.738281 29.527344 253.082031 28.761719 C 249.683594 27.425781 246.144531 25.835938 242.28125 24.589844 C 227.027344 19.050781 207.984375 15.617188 188.882812 15.542969 C 169.785156 15.617188 150.742188 19.050781 135.488281 24.59375 C 131.625 25.835938 128.082031 27.425781 124.6875 28.761719 C 123.03125 29.527344 121.425781 30.273438 119.875 30.992188 C 119.101562 31.351562 118.339844 31.707031 117.597656 32.050781 C 116.855469 32.40625 116.152344 32.804688 115.449219 33.167969 C 112.664062 34.652344 110.082031 35.949219 107.902344 37.324219 C 106.800781 37.984375 105.765625 38.609375 104.800781 39.1875 C 104.320312 39.476562 103.855469 39.757812 103.414062 40.027344 C 102.980469 40.320312 102.570312 40.597656 102.175781 40.863281 C 102.175781 40.863281 100.699219 41.851562 99.222656 42.839844 C 98.488281 43.332031 97.75 43.824219 97.195312 44.195312 C 96.636719 44.558594 96.292969 44.839844 96.292969 44.839844 C 96.292969 44.839844 94.707031 45.980469 92.328125 47.699219 C 91.730469 48.128906 91.085938 48.59375 90.40625 49.085938 C 89.75 49.609375 89.054688 50.160156 88.335938 50.730469 C 86.910156 51.878906 85.363281 53.078125 83.859375 54.328125 C 80.925781 56.917969 77.941406 59.441406 75.882812 61.539062 C 74.828125 62.558594 73.949219 63.410156 73.335938 64.003906 C 72.71875 64.59375 72.375 64.945312 72.375 64.945312 C 72.375 64.945312 71.023438 66.355469 68.992188 68.472656 C 66.90625 70.539062 64.421875 73.566406 61.832031 76.5 C 59.429688 79.589844 56.910156 82.59375 55.269531 85.03125 C 53.558594 87.421875 52.421875 89.011719 52.421875 89.011719 L 48.484375 94.933594 C 40.289062 107.710938 33.714844 121.628906 29.421875 136.285156 C 24.960938 150.902344 22.898438 166.230469 22.765625 181.546875 L 22.761719 181.558594 L 22.757812 181.667969 L 22.761719 181.777344 L 22.765625 181.792969 C 22.898438 197.109375 24.960938 212.4375 29.421875 227.050781 C 33.714844 241.710938 40.289062 255.625 48.484375 268.40625 L 52.421875 274.324219 C 52.421875 274.324219 53.5625 275.917969 55.269531 278.304688 C 56.914062 280.746094 59.429688 283.75 61.832031 286.835938 C 64.421875 289.769531 66.90625 292.796875 68.992188 294.863281 C 71.023438 296.980469 72.375 298.394531 72.375 298.394531 C 72.375 298.394531 72.71875 298.742188 73.335938 299.335938 C 73.949219 299.929688 74.828125 300.777344 75.882812 301.796875 C 77.941406 303.894531 80.925781 306.417969 83.859375 309.011719 C 85.363281 310.257812 86.910156 311.457031 88.335938 312.605469 C 89.054688 313.175781 89.75 313.730469 90.40625 314.253906 C 91.085938 314.746094 91.730469 315.207031 92.328125 315.636719 C 94.707031 317.355469 96.292969 318.5 96.292969 318.5 C 96.292969 318.5 96.636719 318.78125 97.195312 319.140625 C 97.75 319.511719 98.488281 320.003906 99.222656 320.5 C 100.699219 321.488281 102.175781 322.476562 102.175781 322.476562 C 102.570312 322.742188 102.984375 323.019531 103.414062 323.308594 C 103.859375 323.582031 104.320312 323.859375 104.800781 324.148438 C 105.765625 324.730469 106.800781 325.351562 107.90625 326.015625 C 110.085938 327.386719 112.664062 328.6875 115.453125 330.171875 C 116.152344 330.535156 116.855469 330.929688 117.597656 331.285156 C 118.34375 331.632812 119.101562 331.988281 119.875 332.347656 C 121.425781 333.066406 123.03125 333.808594 124.6875 334.578125 C 128.085938 335.910156 131.625 337.503906 135.488281 338.746094 C 150.742188 344.285156 169.785156 347.71875 188.882812 347.792969 C 207.984375 347.71875 227.027344 344.285156 242.28125 338.746094 C 246.144531 337.503906 249.6875 335.910156 253.082031 334.574219 C 254.738281 333.808594 256.34375 333.066406 257.894531 332.347656 C 258.667969 331.984375 259.429688 331.632812 260.171875 331.285156 C 260.914062 330.929688 261.617188 330.535156 262.320312 330.171875 C 265.105469 328.6875 267.683594 327.386719 269.867188 326.015625 C 270.96875 325.351562 272.003906 324.726562 272.96875 324.148438 C 273.449219 323.859375 273.914062 323.578125 274.355469 323.308594 C 274.785156 323.019531 275.199219 322.742188 275.59375 322.476562 C 275.59375 322.476562 277.066406 321.488281 278.542969 320.5 C 279.28125 320.003906 280.019531 319.511719 280.574219 319.140625 C 281.132812 318.78125 281.476562 318.5 281.476562 318.5 C 281.476562 318.5 283.0625 317.355469 285.441406 315.636719 C 286.039062 315.207031 286.679688 314.746094 287.363281 314.253906 C 288.019531 313.730469 288.714844 313.175781 289.429688 312.605469 C 290.859375 311.457031 292.40625 310.257812 293.910156 309.011719 C 296.839844 306.417969 299.828125 303.894531 301.886719 301.796875 C 302.941406 300.777344 303.820312 299.929688 304.433594 299.335938 C 305.050781 298.742188 305.394531 298.394531 305.394531 298.394531 C 305.394531 298.394531 306.746094 296.980469 308.777344 294.863281 C 310.863281 292.796875 313.347656 289.769531 315.9375 286.835938 C 318.339844 283.75 320.859375 280.742188 322.5 278.304688 C 324.210938 275.917969 325.347656 274.324219 325.347656 274.324219 L 329.285156 268.40625 C 337.480469 255.625 344.054688 241.707031 348.347656 227.050781 C 352.808594 212.433594 354.867188 197.109375 355.003906 181.789062 L 355.007812 181.777344 L 355.007812 181.558594 " fill-opacity="1" fill-rule="nonzero"/></g><g clip-path="url(#id2)"><path fill="#a8e5e7" d="M 0.00390625 -1.808594 L 374.996094 -1.808594 L 374.996094 150.441406 L 0.00390625 150.441406 L 0.00390625 -1.808594 " fill-opacity="1" fill-rule="nonzero"/></g><g clip-path="url(#id3)"><path fill="#a8e5e7" d="M 0.0117188 198.417969 L 374.988281 198.417969 L 374.988281 388.917969 L 0.0117188 388.917969 L 0.0117188 198.417969 " fill-opacity="1" fill-rule="nonzero"/></g><g fill="#ffffff" fill-opacity="1"><g transform="translate(53.315073, 297.496203)"><g><path d="M 4.867188 4.507812 C 5.199219 4.820312 5.535156 4.804688 5.847656 4.472656 L 11.136719 -1.238281 L 19.390625 6.410156 L 14.101562 12.121094 C 13.789062 12.453125 13.800781 12.789062 14.136719 13.101562 L 16.605469 15.390625 C 16.941406 15.699219 17.277344 15.6875 17.585938 15.351562 L 34.308594 -2.695312 C 34.621094 -3.03125 34.609375 -3.367188 34.273438 -3.675781 L 31.804688 -5.964844 C 31.46875 -6.273438 31.132812 -6.261719 30.824219 -5.925781 L 22.253906 3.320312 L 14 -4.328125 L 22.570312 -13.574219 C 22.878906 -13.910156 22.867188 -14.246094 22.53125 -14.554688 L 20.0625 -16.84375 C 19.726562 -17.15625 19.390625 -17.144531 19.082031 -16.808594 L 2.359375 1.238281 C 2.046875 1.574219 2.058594 1.910156 2.394531 2.21875 Z M 4.867188 4.507812 "/></g></g></g><g fill="#ffffff" fill-opacity="1"><g transform="translate(76.569924, 318.654361)"><g><path d="M 12.53125 8.679688 C 19.214844 12.925781 27.097656 11.433594 31.449219 4.578125 C 35.796875 -2.265625 33.800781 -10.046875 27.117188 -14.289062 C 20.445312 -18.527344 12.570312 -17.015625 8.222656 -10.171875 C 3.871094 -3.316406 5.859375 4.441406 12.53125 8.679688 Z M 14.898438 4.949219 C 10.597656 2.21875 9.292969 -2.957031 12.253906 -7.613281 C 15.21875 -12.285156 20.433594 -13.300781 24.75 -10.5625 C 29.0625 -7.824219 30.402344 -2.640625 27.4375 2.027344 C 24.46875 6.699219 19.210938 7.691406 14.898438 4.949219 Z M 14.898438 4.949219 "/></g></g></g><g fill="#ffffff" fill-opacity="1"><g transform="translate(107.22244, 337.104092)"><g><path d="M 9.113281 4.519531 C 13.304688 6.292969 18.078125 5.996094 20.082031 1.261719 C 21.863281 -2.949219 19.3125 -6.214844 16.972656 -9.058594 C 14.832031 -11.601562 12.972656 -13.636719 13.859375 -15.726562 C 14.578125 -17.421875 16.351562 -17.445312 18.203125 -16.660156 C 19.730469 -16.015625 21.34375 -14.835938 22.714844 -13.425781 C 23.023438 -13.113281 23.378906 -13.128906 23.695312 -13.4375 L 25.566406 -15.566406 C 25.882812 -15.871094 25.898438 -16.214844 25.574219 -16.535156 C 23.765625 -18.257812 21.632812 -19.730469 19.75 -20.527344 C 15.726562 -22.226562 11.246094 -21.882812 9.300781 -17.285156 C 7.679688 -13.453125 9.648438 -10.46875 11.875 -7.652344 C 14.148438 -4.816406 16.445312 -2.519531 15.550781 -0.402344 C 14.804688 1.359375 12.910156 1.625 10.621094 0.652344 C 8.984375 -0.0390625 7.089844 -1.296875 5.238281 -3.351562 C 4.921875 -3.6875 4.585938 -3.71875 4.273438 -3.410156 L 2.210938 -1.230469 C 1.890625 -0.910156 1.882812 -0.582031 2.207031 -0.222656 C 4.664062 2.175781 6.820312 3.546875 9.113281 4.519531 Z M 9.113281 4.519531 "/></g></g></g><g fill="#ffffff" fill-opacity="1"><g transform="translate(130.666398, 346.733861)"><g><path d="M 6.414062 1.6875 C 6.855469 1.804688 7.144531 1.636719 7.261719 1.195312 L 9.230469 -6.285156 L 14.125 -4.996094 C 19.882812 -3.480469 23.78125 -5.726562 25.238281 -11.257812 C 26.566406 -16.316406 24.84375 -20.339844 17.921875 -22.160156 L 9.773438 -24.304688 C 9.332031 -24.421875 9.042969 -24.253906 8.925781 -23.808594 L 2.664062 -0.015625 C 2.546875 0.425781 2.714844 0.714844 3.160156 0.832031 Z M 12.628906 -19.195312 L 16.261719 -18.242188 C 18.0625 -17.765625 21.800781 -16.75 20.664062 -12.429688 C 19.492188 -7.976562 15.535156 -8.964844 13.929688 -9.386719 L 10.296875 -10.34375 Z M 12.628906 -19.195312 "/></g></g></g><g fill="#ffffff" fill-opacity="1"><g transform="translate(157.281688, 353.094703)"><g><path d="M 6.5625 0.953125 C 7.015625 1.019531 7.285156 0.820312 7.351562 0.367188 L 10.894531 -23.980469 C 10.957031 -24.429688 10.757812 -24.699219 10.304688 -24.765625 L 6.972656 -25.25 C 6.523438 -25.316406 6.253906 -25.117188 6.1875 -24.664062 L 2.644531 -0.316406 C 2.578125 0.136719 2.78125 0.40625 3.230469 0.46875 Z M 6.5625 0.953125 "/></g></g></g><g fill="#ffffff" fill-opacity="1"><g transform="translate(171.508692, 355.185038)"><g><path d="M 17.261719 0.707031 C 17.71875 0.726562 17.964844 0.5 17.984375 0.0429688 L 18.101562 -2.78125 C 18.117188 -3.21875 17.890625 -3.484375 17.433594 -3.503906 L 7.492188 -3.910156 L 7.671875 -8.253906 L 16.261719 -7.902344 C 16.71875 -7.882812 16.964844 -8.109375 16.980469 -8.566406 L 17.089844 -11.207031 C 17.109375 -11.660156 16.882812 -11.90625 16.425781 -11.925781 L 7.835938 -12.277344 L 8.210938 -21.460938 L 18.152344 -21.050781 C 18.609375 -21.035156 18.859375 -21.277344 18.875 -21.71875 L 18.992188 -24.539062 C 19.011719 -24.996094 18.785156 -25.242188 18.328125 -25.261719 L 4.328125 -25.835938 C 3.871094 -25.855469 3.625 -25.628906 3.605469 -25.171875 L 2.597656 -0.585938 C 2.578125 -0.132812 2.804688 0.113281 3.261719 0.132812 Z M 17.261719 0.707031 "/></g></g></g><g fill="#ffffff" fill-opacity="1"><g transform="translate(196.17951, 356.068245)"><g><path d="M 6.507812 -0.71875 C 6.964844 -0.769531 7.171875 -1.03125 7.121094 -1.488281 L 5.46875 -16.421875 L 21.847656 -2.417969 C 22.890625 -1.597656 23.699219 -1.992188 23.5625 -3.222656 L 20.847656 -27.761719 C 20.796875 -28.214844 20.535156 -28.421875 20.082031 -28.375 L 16.835938 -28.015625 C 16.398438 -27.964844 16.171875 -27.703125 16.222656 -27.25 L 17.828125 -12.71875 L 1.402344 -26.390625 C 0.429688 -27.167969 -0.339844 -26.757812 -0.203125 -25.53125 L 2.515625 -0.976562 C 2.5625 -0.523438 2.824219 -0.3125 3.28125 -0.363281 Z M 6.507812 -0.71875 "/></g></g></g><g fill="#ffffff" fill-opacity="1"><g transform="translate(227.700632, 352.128025)"><g><path d="M 14.78125 -3.652344 C 18.875 -4.839844 21.890625 -7.386719 23.472656 -10.613281 C 23.664062 -10.984375 23.511719 -11.277344 23.074219 -11.449219 L 19.902344 -12.539062 C 19.503906 -12.703125 19.207031 -12.566406 19.015625 -12.191406 C 17.9375 -10.207031 16.050781 -8.621094 13.566406 -7.898438 C 8.675781 -6.480469 3.929688 -8.925781 2.390625 -14.242188 C 0.851562 -19.539062 3.554688 -24.128906 8.414062 -25.539062 C 10.933594 -26.269531 13.359375 -25.933594 15.347656 -24.835938 C 15.710938 -24.625 16.050781 -24.667969 16.28125 -25.019531 L 18.375 -27.652344 C 18.636719 -28.027344 18.589844 -28.367188 18.191406 -28.585938 C 15.117188 -30.441406 11.25 -30.957031 7.183594 -29.78125 C -0.324219 -27.601562 -4.460938 -20.730469 -2.191406 -12.894531 C 0.0820312 -5.0625 7.238281 -1.464844 14.78125 -3.652344 Z M 14.78125 -3.652344 "/></g></g></g><g fill="#ffffff" fill-opacity="1"><g transform="translate(258.348769, 342.705685)"><g><path d="M 0.644531 -29.183594 C -0.0898438 -29.804688 -0.746094 -29.488281 -0.726562 -28.519531 L 0.148438 -0.972656 C 0.164062 -0.4375 0.503906 -0.242188 0.960938 -0.464844 L 4.328125 -2.09375 C 4.660156 -2.253906 4.847656 -2.53125 4.804688 -2.925781 L 4.539062 -6.855469 L 14.367188 -11.609375 L 17.28125 -8.960938 C 17.566406 -8.683594 17.898438 -8.65625 18.234375 -8.816406 L 21.585938 -10.4375 C 22.058594 -10.667969 22.101562 -11.046875 21.703125 -11.398438 Z M 3.574219 -21.410156 L 11.324219 -14.367188 L 4.269531 -10.957031 Z M 3.574219 -21.410156 "/></g></g></g><g fill="#ffffff" fill-opacity="1"><g transform="translate(285.232641, 329.086098)"><g><path d="M 8.722656 -5.230469 C 12.480469 -7.800781 14.808594 -11.980469 11.902344 -16.222656 C 9.324219 -19.996094 5.199219 -19.613281 1.539062 -19.175781 C -1.757812 -18.75 -4.472656 -18.285156 -5.753906 -20.15625 C -6.796875 -21.675781 -5.855469 -23.179688 -4.195312 -24.316406 C -2.828125 -25.253906 -0.960938 -25.976562 0.960938 -26.371094 C 1.394531 -26.460938 1.570312 -26.765625 1.480469 -27.199219 L 0.703125 -29.925781 C 0.613281 -30.355469 0.335938 -30.554688 -0.109375 -30.453125 C -2.535156 -29.863281 -4.925781 -28.863281 -6.617188 -27.707031 C -10.21875 -25.238281 -12.347656 -21.28125 -9.527344 -17.160156 C -7.179688 -13.726562 -3.601562 -13.773438 -0.03125 -14.128906 C 3.582031 -14.507812 6.757812 -15.203125 8.058594 -13.304688 C 9.136719 -11.726562 8.335938 -9.988281 6.285156 -8.585938 C 4.816406 -7.582031 2.734375 -6.667969 0.0078125 -6.21875 C -0.445312 -6.132812 -0.652344 -5.867188 -0.5625 -5.4375 L 0.15625 -2.527344 C 0.257812 -2.082031 0.527344 -1.898438 1.003906 -1.980469 C 4.351562 -2.75 6.671875 -3.828125 8.722656 -5.230469 Z M 8.722656 -5.230469 "/></g></g></g><g fill="#ffffff" fill-opacity="1"><g transform="translate(306.112291, 314.556608)"><g><path d="M -7.992188 -28.074219 C -8.875 -28.453125 -9.410156 -27.957031 -9.105469 -27.035156 L -0.144531 -0.976562 C 0.0273438 -0.464844 0.410156 -0.378906 0.78125 -0.726562 L 3.515625 -3.273438 C 3.789062 -3.527344 3.882812 -3.847656 3.730469 -4.214844 L 2.316406 -7.890625 L 10.304688 -15.328125 L 13.871094 -13.65625 C 14.226562 -13.476562 14.550781 -13.550781 14.824219 -13.804688 L 17.546875 -16.339844 C 17.933594 -16.699219 17.859375 -17.070312 17.378906 -17.292969 Z M -2.898438 -21.511719 L 6.582031 -17.066406 L 0.847656 -11.726562 Z M -2.898438 -21.511719 "/></g></g></g><path fill="#ffffff" d="M 141.417969 136.519531 C 143.28125 136.742188 144.96875 135.417969 145.191406 133.558594 C 145.390625 131.90625 145.710938 130.304688 146.140625 128.792969 C 147.601562 123.671875 151.015625 119.460938 155.75 116.941406 C 160.628906 114.347656 166.230469 113.863281 171.527344 115.578125 C 174.214844 116.445312 176.773438 117.664062 179.132812 119.199219 C 184.226562 122.507812 190.792969 122.515625 195.859375 119.214844 C 198.222656 117.671875 200.789062 116.449219 203.488281 115.578125 C 208.796875 113.859375 214.410156 114.351562 219.292969 116.96875 C 224.058594 119.519531 227.472656 123.777344 228.917969 128.949219 C 230.683594 135.273438 229.886719 140.996094 229.875 141.078125 C 226.773438 163.183594 205.425781 178.34375 192.976562 185.410156 C 189.601562 187.328125 185.410156 187.324219 182.035156 185.410156 C 173.929688 180.804688 159.09375 170.980469 150.816406 156.886719 C 149.757812 155.082031 149.816406 152.871094 150.972656 151.25 C 151.628906 150.328125 152.835938 149.097656 155.863281 149.125 C 158.105469 149.136719 160.300781 150.011719 162.046875 151.574219 L 162.226562 151.734375 C 169.882812 158.507812 181.351562 159.410156 190.105469 153.929688 L 191.054688 153.335938 C 194.113281 151.421875 196.328125 150.710938 199.230469 150.710938 C 201.105469 150.710938 202.625 149.195312 202.625 147.328125 C 202.625 145.457031 201.105469 143.941406 199.230469 143.941406 C 195.015625 143.941406 191.601562 145.003906 187.449219 147.601562 L 186.5 148.195312 C 180.277344 152.089844 172.148438 151.460938 166.726562 146.667969 L 166.589844 146.546875 C 163.605469 143.867188 159.808594 142.378906 155.902344 142.355469 C 155.867188 142.355469 155.835938 142.355469 155.800781 142.355469 C 150.171875 142.355469 147.0625 145.054688 145.441406 147.328125 C 142.742188 151.113281 142.554688 156.210938 144.960938 160.308594 C 154.035156 175.761719 169.980469 186.355469 178.679688 191.292969 C 181.402344 192.839844 184.453125 193.613281 187.507812 193.613281 C 190.5625 193.613281 193.613281 192.839844 196.335938 191.296875 C 209.867188 183.613281 233.09375 166.992188 236.59375 142.046875 C 236.636719 141.757812 237.625 134.898438 235.457031 127.132812 C 233.511719 120.164062 228.914062 114.4375 222.503906 111.003906 C 216.070312 107.558594 208.378906 106.878906 201.394531 109.136719 C 198.125 110.195312 195.015625 111.675781 192.148438 113.542969 C 189.332031 115.378906 185.675781 115.371094 182.835938 113.523438 C 179.976562 111.664062 176.875 110.1875 173.621094 109.136719 C 166.65625 106.882812 158.980469 107.550781 152.554688 110.96875 C 146.179688 114.363281 141.582031 120.035156 139.613281 126.941406 C 139.085938 128.792969 138.695312 130.75 138.457031 132.753906 C 138.230469 134.609375 139.558594 136.292969 141.417969 136.519531 " fill-opacity="1" fill-rule="nonzero"/><path fill="#ffffff" d="M 208.769531 149.207031 C 208.890625 149.390625 209.035156 149.566406 209.191406 149.71875 C 209.820312 150.347656 210.699219 150.710938 211.589844 150.710938 C 211.8125 150.710938 212.035156 150.691406 212.253906 150.648438 C 212.46875 150.597656 212.679688 150.535156 212.890625 150.453125 C 213.09375 150.367188 213.289062 150.261719 213.472656 150.140625 C 213.660156 150.019531 213.835938 149.875 213.988281 149.71875 C 214.144531 149.566406 214.285156 149.390625 214.410156 149.207031 C 214.53125 149.023438 214.640625 148.824219 214.722656 148.621094 C 214.808594 148.417969 214.871094 148.207031 214.914062 147.988281 C 214.960938 147.769531 214.984375 147.546875 214.984375 147.324219 C 214.984375 147.109375 214.960938 146.886719 214.914062 146.664062 C 214.871094 146.449219 214.808594 146.238281 214.722656 146.03125 C 214.640625 145.828125 214.53125 145.632812 214.410156 145.449219 C 214.285156 145.261719 214.144531 145.085938 213.988281 144.929688 C 213.835938 144.777344 213.660156 144.636719 213.472656 144.511719 C 213.289062 144.390625 213.09375 144.285156 212.890625 144.203125 C 212.679688 144.113281 212.46875 144.050781 212.253906 144.007812 C 211.148438 143.785156 209.976562 144.148438 209.191406 144.929688 C 209.035156 145.085938 208.890625 145.261719 208.769531 145.449219 C 208.648438 145.632812 208.539062 145.828125 208.457031 146.03125 C 208.371094 146.238281 208.308594 146.449219 208.265625 146.664062 C 208.222656 146.886719 208.195312 147.109375 208.195312 147.324219 C 208.195312 147.546875 208.222656 147.769531 208.265625 147.988281 C 208.308594 148.207031 208.371094 148.417969 208.457031 148.621094 C 208.539062 148.824219 208.648438 149.023438 208.769531 149.207031 " fill-opacity="1" fill-rule="nonzero"/><g clip-path="url(#id4)"><path fill="#ffffff" d="M 122.195312 219.144531 C 125.054688 221.09375 128.394531 223.398438 132.125 226 C 136.78125 229.246094 139.882812 234.328125 140.636719 239.945312 C 141.246094 244.472656 145.15625 247.886719 149.734375 247.886719 L 164.730469 247.886719 C 166.605469 247.886719 168.125 246.371094 168.125 244.503906 C 168.125 242.632812 166.605469 241.117188 164.730469 241.117188 L 149.734375 241.117188 C 148.542969 241.117188 147.523438 240.226562 147.363281 239.046875 C 146.359375 231.554688 142.222656 224.777344 136.011719 220.449219 C 132.265625 217.835938 128.902344 215.515625 126.019531 213.554688 C 123.429688 211.789062 121.511719 209.285156 120.46875 206.3125 C 118.316406 200.164062 114.539062 187.214844 113.472656 169.59375 C 113.40625 168.53125 113.773438 167.519531 114.507812 166.742188 C 115.242188 165.964844 116.238281 165.535156 117.3125 165.535156 C 119.238281 165.535156 120.878906 166.972656 121.125 168.878906 C 121.632812 172.851562 122.386719 178.535156 123.089844 183.070312 C 123.644531 186.660156 125.460938 189.953125 128.207031 192.347656 L 130.128906 194.027344 C 131.539062 195.261719 133.683594 195.117188 134.917969 193.710938 C 136.152344 192.304688 136.007812 190.167969 134.597656 188.933594 L 132.675781 187.253906 C 131.132812 185.90625 130.109375 184.054688 129.796875 182.039062 C 129.109375 177.570312 128.359375 171.949219 127.855469 168.019531 C 127.179688 162.742188 122.644531 158.765625 117.3125 158.765625 C 114.390625 158.765625 111.566406 159.980469 109.566406 162.105469 C 107.566406 164.222656 106.519531 167.101562 106.695312 170.003906 C 107.757812 187.515625 111.289062 200.628906 114.0625 208.546875 C 115.585938 212.894531 118.398438 216.5625 122.195312 219.144531 " fill-opacity="1" fill-rule="nonzero"/></g><g clip-path="url(#id5)"><path fill="#ffffff" d="M 147.289062 214.457031 C 148.398438 215.511719 149.136719 216.929688 149.363281 218.445312 L 150.207031 224.042969 C 150.484375 225.894531 152.210938 227.167969 154.066406 226.890625 C 155.917969 226.613281 157.195312 224.890625 156.917969 223.039062 L 156.078125 217.441406 C 155.625 214.449219 154.167969 211.648438 151.972656 209.554688 L 146.109375 203.976562 C 145.160156 203.078125 144.660156 201.863281 144.695312 200.554688 C 144.734375 199.25 145.300781 198.066406 146.300781 197.222656 C 147.753906 195.984375 149.855469 195.792969 151.53125 196.738281 C 160.964844 202.078125 167.945312 209.898438 172.140625 215.523438 C 174.289062 218.394531 175.46875 221.960938 175.46875 225.5625 L 175.46875 244.503906 C 175.46875 246.371094 176.988281 247.886719 178.863281 247.886719 C 180.738281 247.886719 182.257812 246.371094 182.257812 244.503906 L 182.257812 225.5625 C 182.257812 220.515625 180.597656 215.511719 177.585938 211.476562 C 173.003906 205.335938 165.339844 196.773438 154.882812 190.851562 C 150.734375 188.503906 145.519531 188.992188 141.898438 192.066406 C 139.457031 194.140625 138.003906 197.164062 137.910156 200.363281 C 137.820312 203.566406 139.101562 206.667969 141.421875 208.875 L 147.289062 214.457031 " fill-opacity="1" fill-rule="nonzero"/></g><g clip-path="url(#id6)"><path fill="#ffffff" d="M 257.707031 158.765625 C 252.371094 158.765625 247.835938 162.742188 247.160156 168.019531 C 246.65625 171.957031 245.90625 177.589844 245.21875 182.039062 C 244.90625 184.054688 243.882812 185.90625 242.339844 187.253906 L 240.417969 188.933594 C 239.007812 190.167969 238.867188 192.304688 240.101562 193.710938 C 241.335938 195.117188 243.480469 195.261719 244.886719 194.027344 L 246.8125 192.347656 C 249.554688 189.953125 251.371094 186.660156 251.925781 183.070312 C 252.625 178.550781 253.378906 172.859375 253.894531 168.878906 C 254.136719 166.972656 255.777344 165.535156 257.707031 165.535156 C 258.777344 165.535156 259.773438 165.964844 260.507812 166.742188 C 261.242188 167.519531 261.609375 168.53125 261.546875 169.59375 C 260.476562 187.21875 256.703125 200.164062 254.546875 206.3125 C 253.503906 209.285156 251.585938 211.789062 248.992188 213.554688 C 244.707031 216.472656 240.046875 219.71875 236.894531 221.925781 C 232.023438 225.328125 228.78125 230.65625 227.992188 236.535156 L 227.652344 239.046875 C 227.496094 240.226562 226.472656 241.117188 225.28125 241.117188 L 210.285156 241.117188 C 208.410156 241.117188 206.890625 242.632812 206.890625 244.503906 C 206.890625 246.371094 208.410156 247.886719 210.285156 247.886719 L 225.28125 247.886719 C 229.859375 247.886719 233.769531 244.472656 234.378906 239.945312 L 234.714844 237.433594 C 235.253906 233.421875 237.46875 229.789062 240.789062 227.464844 C 243.929688 225.269531 248.5625 222.046875 252.820312 219.144531 C 256.617188 216.558594 259.429688 212.894531 260.953125 208.546875 C 263.726562 200.632812 267.257812 187.519531 268.320312 170.003906 C 268.496094 167.101562 267.453125 164.222656 265.449219 162.105469 C 263.449219 159.980469 260.625 158.765625 257.707031 158.765625 " fill-opacity="1" fill-rule="nonzero"/></g><g clip-path="url(#id7)"><path fill="#ffffff" d="M 233.117188 192.066406 C 229.496094 188.992188 224.28125 188.503906 220.136719 190.851562 C 209.675781 196.773438 202.015625 205.335938 197.429688 211.476562 C 194.417969 215.511719 192.757812 220.515625 192.757812 225.5625 L 192.757812 244.503906 C 192.757812 246.371094 194.277344 247.886719 196.152344 247.886719 C 198.027344 247.886719 199.546875 246.371094 199.546875 244.503906 L 199.546875 225.5625 C 199.546875 221.960938 200.726562 218.394531 202.875 215.519531 C 207.070312 209.898438 214.050781 202.078125 223.484375 196.738281 C 225.160156 195.792969 227.261719 195.984375 228.71875 197.222656 C 229.714844 198.066406 230.28125 199.25 230.320312 200.554688 C 230.359375 201.863281 229.855469 203.078125 228.910156 203.976562 L 223.042969 209.558594 C 220.847656 211.648438 219.390625 214.449219 218.941406 217.441406 L 218.097656 223.039062 C 217.820312 224.890625 219.097656 226.613281 220.953125 226.890625 C 222.800781 227.171875 224.53125 225.894531 224.8125 224.042969 L 225.652344 218.445312 C 225.878906 216.929688 226.617188 215.511719 227.726562 214.457031 L 233.59375 208.875 C 235.914062 206.667969 237.195312 203.566406 237.105469 200.363281 C 237.015625 197.164062 235.558594 194.140625 233.117188 192.066406 " fill-opacity="1" fill-rule="nonzero"/></g><g fill="#ffffff" fill-opacity="1"><g transform="translate(66.527954, 90.023151)"><g><path d="M 3.199219 -3.625 C 3.417969 -3.875 3.402344 -4.121094 3.152344 -4.34375 L -4.441406 -11.042969 L 4.425781 -10.445312 C 4.796875 -10.414062 4.976562 -10.621094 4.902344 -10.984375 L 3.203125 -19.742188 L 10.8125 -13.027344 C 11.066406 -12.804688 11.3125 -12.820312 11.53125 -13.070312 L 13.128906 -14.878906 C 13.347656 -15.128906 13.335938 -15.375 13.082031 -15.597656 L -0.539062 -27.617188 C -1.253906 -28.25 -1.859375 -27.886719 -1.667969 -26.953125 L 0.964844 -13.976562 L -12.222656 -14.992188 C -13.1875 -15.0625 -13.453125 -14.421875 -12.738281 -13.789062 L 0.882812 -1.773438 C 1.136719 -1.550781 1.382812 -1.566406 1.601562 -1.816406 Z M 3.199219 -3.625 "/></g></g></g><g fill="#ffffff" fill-opacity="1"><g transform="translate(83.56055, 71.439695)"><g><path d="M -7.21875 -21.136719 C -7.03125 -21.300781 -6.945312 -21.503906 -6.960938 -21.769531 L -7.042969 -25.105469 C -7.0625 -25.546875 -7.34375 -25.648438 -7.675781 -25.367188 L -9.191406 -24.0625 C -9.398438 -23.882812 -9.46875 -23.640625 -9.417969 -23.390625 L -8.917969 -20.480469 C -8.855469 -20.105469 -8.558594 -19.988281 -8.246094 -20.253906 Z M 9.621094 -8.265625 C 9.875 -8.484375 9.894531 -8.730469 9.675781 -8.984375 L 8.324219 -10.558594 C 8.113281 -10.804688 7.859375 -10.832031 7.605469 -10.613281 L 2.0625 -5.851562 L -0.015625 -8.273438 L 4.769531 -12.386719 C 5.023438 -12.605469 5.042969 -12.851562 4.824219 -13.105469 L 3.5625 -14.574219 C 3.34375 -14.832031 3.097656 -14.847656 2.84375 -14.628906 L -1.945312 -10.515625 L -6.339844 -15.632812 L -0.800781 -20.394531 C -0.542969 -20.613281 -0.535156 -20.867188 -0.746094 -21.113281 L -2.097656 -22.6875 C -2.316406 -22.941406 -2.5625 -22.960938 -2.816406 -22.742188 L -10.617188 -16.039062 C -10.871094 -15.820312 -10.890625 -15.574219 -10.671875 -15.320312 L 1.101562 -1.617188 C 1.320312 -1.363281 1.5625 -1.34375 1.820312 -1.5625 Z M 9.621094 -8.265625 "/></g></g></g><g fill="#ffffff" fill-opacity="1"><g transform="translate(96.824594, 60.119451)"><g><path d="M 6.246094 -4.113281 C 11.722656 -7.722656 12.714844 -12.679688 9.433594 -17.65625 C 6.117188 -22.691406 1.183594 -23.632812 -4.253906 -20.050781 L -8.496094 -17.253906 C -8.777344 -17.070312 -8.828125 -16.828125 -8.640625 -16.550781 L 1.296875 -1.464844 C 1.480469 -1.183594 1.722656 -1.132812 2.003906 -1.320312 Z M -4.285156 -16.328125 L -2.5625 -17.460938 C 0.964844 -19.785156 4.222656 -19.222656 6.5 -15.769531 C 8.773438 -12.3125 8.0625 -9.015625 4.535156 -6.691406 L 2.8125 -5.558594 Z M -4.285156 -16.328125 "/></g></g></g><g fill="#ffffff" fill-opacity="1"><g transform="translate(115.429043, 48.427941)"><g><path d="M 4.328125 -2.238281 C 4.625 -2.390625 4.699219 -2.625 4.546875 -2.921875 L -3.75 -18.972656 C -3.90625 -19.269531 -4.140625 -19.34375 -4.4375 -19.1875 L -6.632812 -18.054688 C -6.929688 -17.898438 -7.007812 -17.664062 -6.851562 -17.367188 L 1.445312 -1.320312 C 1.597656 -1.023438 1.832031 -0.945312 2.128906 -1.101562 Z M 4.328125 -2.238281 "/></g></g></g><g fill="#ffffff" fill-opacity="1"><g transform="translate(124.69272, 43.455646)"><g><path d="M 10.578125 -3.609375 C 13.5 -4.738281 15.542969 -6.792969 16.496094 -9.253906 C 16.613281 -9.539062 16.480469 -9.742188 16.152344 -9.839844 L 13.761719 -10.433594 C 13.460938 -10.53125 13.253906 -10.410156 13.136719 -10.125 C 12.472656 -8.605469 11.195312 -7.324219 9.421875 -6.640625 C 5.933594 -5.289062 2.308594 -6.78125 0.84375 -10.570312 C -0.617188 -14.347656 1.070312 -17.875 4.535156 -19.214844 C 6.328125 -19.910156 8.125 -19.816406 9.652344 -19.140625 C 9.929688 -19.011719 10.171875 -19.066406 10.320312 -19.335938 L 11.683594 -21.394531 C 11.851562 -21.683594 11.796875 -21.929688 11.492188 -22.066406 C 9.125 -23.226562 6.261719 -23.359375 3.363281 -22.242188 C -1.988281 -20.171875 -4.578125 -14.878906 -2.421875 -9.292969 C -0.261719 -3.707031 5.203125 -1.53125 10.578125 -3.609375 Z M 10.578125 -3.609375 "/></g></g></g><g fill="#ffffff" fill-opacity="1"><g transform="translate(145.688981, 35.458714)"><g><path d="M 11.023438 -1.941406 C 16.703125 -3.175781 20.046875 -8.023438 18.78125 -13.851562 C 17.515625 -19.667969 12.457031 -22.699219 6.773438 -21.460938 C 1.105469 -20.230469 -2.226562 -15.371094 -0.960938 -9.554688 C 0.308594 -3.730469 5.351562 -0.707031 11.023438 -1.941406 Z M 10.332031 -5.109375 C 6.679688 -4.3125 3.324219 -6.34375 2.464844 -10.300781 C 1.597656 -14.269531 3.796875 -17.496094 7.464844 -18.292969 C 11.128906 -19.089844 14.503906 -17.078125 15.367188 -13.109375 C 16.230469 -9.140625 14 -5.90625 10.332031 -5.109375 Z M 10.332031 -5.109375 "/></g></g></g><g fill="#ffffff" fill-opacity="1"><g transform="translate(170.543804, 30.528912)"><g><path d="M 7.46875 -0.105469 C 10.800781 -0.351562 13.820312 -2.144531 13.539062 -5.914062 C 13.292969 -9.257812 10.53125 -10.535156 8.046875 -11.609375 C 5.796875 -12.550781 3.902344 -13.257812 3.777344 -14.917969 C 3.675781 -16.269531 4.828125 -16.878906 6.300781 -16.988281 C 7.515625 -17.078125 8.964844 -16.847656 10.332031 -16.390625 C 10.640625 -16.289062 10.867188 -16.417969 10.96875 -16.722656 L 11.480469 -18.742188 C 11.582031 -19.046875 11.476562 -19.277344 11.160156 -19.378906 C 9.402344 -19.894531 7.515625 -20.140625 6.015625 -20.03125 C 2.816406 -19.792969 0.00390625 -18.066406 0.277344 -14.410156 C 0.503906 -11.363281 2.792969 -10.074219 5.191406 -8.980469 C 7.625 -7.890625 9.898438 -7.164062 10.023438 -5.476562 C 10.125 -4.078125 8.976562 -3.269531 7.15625 -3.132812 C 5.855469 -3.039062 4.195312 -3.226562 2.296875 -3.945312 C 1.980469 -4.058594 1.75 -3.96875 1.648438 -3.660156 L 1.03125 -1.546875 C 0.929688 -1.226562 1.035156 -1.011719 1.367188 -0.886719 C 3.777344 -0.144531 5.644531 0.03125 7.46875 -0.105469 Z M 7.46875 -0.105469 "/></g></g></g><g fill="#ffffff" fill-opacity="1"><g transform="translate(188.800379, 29.50797)"><g/></g></g><g fill="#ffffff" fill-opacity="1"><g transform="translate(199.794941, 29.737718)"><g><path d="M 12.601562 1.445312 C 12.9375 1.484375 13.128906 1.332031 13.167969 0.996094 L 13.402344 -1.0625 C 13.441406 -1.386719 13.289062 -1.589844 12.957031 -1.628906 L 5.699219 -2.460938 L 6.0625 -5.632812 L 12.332031 -4.914062 C 12.664062 -4.875 12.859375 -5.027344 12.894531 -5.363281 L 13.117188 -7.289062 C 13.15625 -7.621094 13 -7.8125 12.667969 -7.851562 L 6.398438 -8.570312 L 7.167969 -15.273438 L 14.425781 -14.441406 C 14.757812 -14.402344 14.953125 -14.566406 14.988281 -14.890625 L 15.226562 -16.949219 C 15.261719 -17.285156 15.109375 -17.476562 14.777344 -17.515625 L 4.558594 -18.6875 C 4.222656 -18.726562 4.03125 -18.570312 3.992188 -18.238281 L 1.933594 -0.289062 C 1.894531 0.0429688 2.050781 0.234375 2.382812 0.273438 Z M 12.601562 1.445312 "/></g></g></g><g fill="#ffffff" fill-opacity="1"><g transform="translate(217.100498, 31.757238)"><g><path d="M 4.667969 1.160156 C 4.992188 1.238281 5.203125 1.113281 5.285156 0.789062 L 7.941406 -9.921875 L 15.664062 3.890625 C 16.175781 4.71875 16.832031 4.652344 17.050781 3.773438 L 21.417969 -13.820312 C 21.5 -14.144531 21.371094 -14.355469 21.046875 -14.4375 L 18.71875 -15.015625 C 18.40625 -15.09375 18.183594 -14.96875 18.101562 -14.644531 L 15.515625 -4.226562 L 7.675781 -17.820312 C 7.207031 -18.605469 6.570312 -18.519531 6.351562 -17.636719 L 1.980469 -0.0351562 C 1.898438 0.292969 2.027344 0.503906 2.351562 0.582031 Z M 4.667969 1.160156 "/></g></g></g><g fill="#ffffff" fill-opacity="1"><g transform="translate(238.900825, 37.68012)"><g/></g></g><g fill="#ffffff" fill-opacity="1"><g transform="translate(249.149473, 41.280904)"><g><path d="M 9.804688 5.371094 C 12.605469 6.765625 15.503906 6.886719 17.960938 5.929688 C 18.25 5.824219 18.308594 5.589844 18.160156 5.28125 L 16.988281 3.117188 C 16.855469 2.828125 16.625 2.753906 16.335938 2.863281 C 14.765625 3.398438 12.960938 3.320312 11.257812 2.472656 C 7.910156 0.808594 6.5625 -2.871094 8.371094 -6.507812 C 10.171875 -10.136719 13.914062 -11.273438 17.242188 -9.621094 C 18.964844 -8.761719 20.109375 -7.375 20.640625 -5.792969 C 20.730469 -5.5 20.933594 -5.355469 21.234375 -5.429688 L 23.671875 -5.8125 C 24 -5.886719 24.144531 -6.089844 24.039062 -6.40625 C 23.300781 -8.941406 21.464844 -11.140625 18.683594 -12.523438 C 13.542969 -15.078125 7.890625 -13.421875 5.226562 -8.058594 C 2.5625 -2.695312 4.640625 2.804688 9.804688 5.371094 Z M 9.804688 5.371094 "/></g></g></g><g fill="#ffffff" fill-opacity="1"><g transform="translate(269.241917, 51.544246)"><g><path d="M 18.863281 -10.175781 C 18.996094 -10.867188 18.554688 -11.171875 17.941406 -10.808594 L 0.675781 -0.257812 C 0.339844 -0.0546875 0.335938 0.234375 0.644531 0.445312 L 2.90625 2.003906 C 3.128906 2.15625 3.375 2.175781 3.613281 2.007812 L 6.023438 0.410156 L 12.621094 4.960938 L 11.988281 7.785156 C 11.914062 8.066406 12.019531 8.289062 12.242188 8.441406 L 14.492188 9.992188 C 14.8125 10.210938 15.066406 10.101562 15.148438 9.722656 Z M 14.964844 -5.484375 L 13.277344 2.015625 L 8.542969 -1.25 Z M 14.964844 -5.484375 "/></g></g></g><g fill="#ffffff" fill-opacity="1"><g transform="translate(286.729796, 63.975729)"><g><path d="M 5.25 5.3125 C 7.734375 7.546875 11.121094 8.480469 13.644531 5.671875 C 15.882812 3.175781 14.894531 0.296875 13.949219 -2.238281 C 13.070312 -4.511719 12.265625 -6.371094 13.378906 -7.609375 C 14.28125 -8.617188 15.519531 -8.207031 16.617188 -7.21875 C 17.523438 -6.40625 18.363281 -5.203125 18.980469 -3.898438 C 19.117188 -3.605469 19.367188 -3.53125 19.660156 -3.671875 L 21.46875 -4.699219 C 21.761719 -4.839844 21.855469 -5.074219 21.707031 -5.375 C 20.863281 -7 19.734375 -8.53125 18.613281 -9.535156 C 16.230469 -11.675781 13.035156 -12.507812 10.585938 -9.78125 C 8.542969 -7.507812 9.199219 -4.964844 10.074219 -2.476562 C 10.972656 0.0351562 12.019531 2.175781 10.890625 3.433594 C 9.953125 4.480469 8.574219 4.210938 7.21875 2.988281 C 6.246094 2.117188 5.234375 0.792969 4.4375 -1.074219 C 4.296875 -1.382812 4.074219 -1.484375 3.78125 -1.347656 L 1.828125 -0.328125 C 1.53125 -0.179688 1.445312 0.046875 1.585938 0.371094 C 2.71875 2.625 3.890625 4.09375 5.25 5.3125 Z M 5.25 5.3125 "/></g></g></g><g fill="#ffffff" fill-opacity="1"><g transform="translate(300.069605, 76.062402)"><g><path d="M 20.824219 -5.066406 C 21.128906 -5.707031 20.777344 -6.109375 20.09375 -5.914062 L 0.71875 -0.078125 C 0.339844 0.0351562 0.269531 0.3125 0.511719 0.59375 L 2.304688 2.671875 C 2.480469 2.878906 2.714844 2.960938 2.984375 2.855469 L 5.722656 1.921875 L 10.953125 7.996094 L 9.628906 10.566406 C 9.484375 10.820312 9.527344 11.058594 9.707031 11.265625 L 11.492188 13.339844 C 11.742188 13.628906 12.019531 13.589844 12.195312 13.242188 Z M 15.863281 -1.515625 L 12.335938 5.3125 L 8.582031 0.957031 Z M 15.863281 -1.515625 "/></g></g></g></svg>